<?xml version="1.0" encoding="UTF-8"?>
<!DOCTYPE svg PUBLIC "-//W3C//DTD SVG 1.1//EN" "http://www.w3.org/Graphics/SVG/1.1/DTD/svg11.dtd">
<!-- Creator: CorelDRAW X6 -->
<svg xmlns="http://www.w3.org/2000/svg" xml:space="preserve" width="503px" height="467px" version="1.1" style="shape-rendering:geometricPrecision; text-rendering:geometricPrecision; image-rendering:optimizeQuality; fill-rule:evenodd; clip-rule:evenodd"
viewBox="0 0 511 474"
 xmlns:xlink="http://www.w3.org/1999/xlink">
 <defs>
  <style type="text/css">

    
   <![CDATA[
    .fil22 {fill:#A9ABAE}
    .fil19 {fill:#BDBFC1}
    .fil14 {fill:#D2D3D5}
    .fil20 {fill:#E6E7E8}
    .fil15 {fill:#FEFEFE}
    .fil5 {fill:#002448}
    .fil6 {fill:#002D4F}
    .fil31 {fill:#003C58}
    .fil30 {fill:#004A80}
    .fil16 {fill:#005B80}
    .fil10 {fill:#006A8F}
    .fil3 {fill:#012D5A}
    .fil4 {fill:#013861}
    .fil0 {fill:#4A2922}
    .fil28 {fill:#542F29}
    .fil8 {fill:#6B3221}
    .fil24 {fill:#6D3325}
    .fil25 {fill:#9A563F}
    .fil21 {fill:#A38376}
    .fil29 {fill:#A7634E}
    .fil2 {fill:#AB4F5A}
    .fil1 {fill:#AF0335}
    .fil23 {fill:#B28475}
    .fil13 {fill:#C39A88}
    .fil18 {fill:#C8A393}
    .fil12 {fill:#D8B1A0}
    .fil11 {fill:#E2C6BA}
    .fil17 {fill:#E6C8BD}
    .fil9 {fill:#E89B81}
    .fil7 {fill:#F62E2E}
    .fil37 {fill:#FCC783}
    .fil27 {fill:#FDB000}
    .fil33 {fill:#FF8C01}
    .fil32 {fill:#FF9D01}
    .fil38 {fill:#FF9E01}
    .fil36 {fill:#FFA100}
    .fil26 {fill:#FFAF02}
    .fil34 {fill:#FFB100}
    .fil35 {fill:#FF8C01;fill-rule:nonzero}
   ]]>
  </style>
 </defs>
 <g id="Capa_x0020_1">
  <metadata id="CorelCorpID_0Corel-Layer"/>
  <polygon class="fil0" points="198,52 284,46 330,142 164,135 "/>
  <polygon class="fil1" points="184,182 308,184 309,453 260,460 184,456 "/>
  <rect class="fil2" x="246" y="308" width="12" height="151"/>
  <g id="_514417944">
   <polygon class="fil3" points="409,146 291,111 291,468 412,456 "/>
   <polygon class="fil4" points="360,281 347,293 368,314 347,336 360,348 381,327 402,348 411,339 411,332 393,314 411,297 411,289 402,281 381,302 "/>
   <polygon class="fil4" points="360,355 348,368 369,389 348,410 360,422 381,401 402,422 412,413 412,407 394,389 411,371 411,364 402,355 381,376 "/>
   <polygon class="fil4" points="291,344 299,352 291,359 291,384 311,364 332,385 345,373 323,352 345,330 332,318 311,339 291,319 "/>
   <polygon class="fil4" points="291,269 296,274 291,279 291,303 308,286 330,307 342,295 321,274 342,253 330,240 308,262 291,244 "/>
   <polygon class="fil4" points="291,117 305,131 291,144 291,160 296,164 317,143 338,164 351,152 329,131 336,124 317,118 317,118 317,118 291,111 "/>
   <polygon class="fil4" points="359,131 350,140 371,161 350,183 363,195 384,174 405,195 410,190 409,175 396,161 409,148 409,146 392,141 384,149 368,134 "/>
   <g>
    <polygon class="fil4" points="364,394 348,410 360,422 381,401 402,422 412,413 412,407 399,394 "/>
    <polygon class="fil4" points="360,429 348,441 363,457 399,457 412,444 412,438 402,429 381,450 "/>
   </g>
   <polygon class="fil5" points="403,457 412,456 412,394 327,393 327,457 "/>
   <polygon class="fil6" points="399,394 364,394 348,410 360,422 381,401 402,422 412,413 412,407 "/>
   <polygon class="fil6" points="360,429 348,441 367,460 399,457 412,444 412,438 402,429 381,450 "/>
   <path class="fil7" d="M387 458l1 6 16 -1 -3 -7 12 -1 0 -16 -63 6 -6 -58 -26 -6 -1 -43 14 0 -1 -29 -13 -5 -1 -58 10 0 0 -22 -11 0 0 -6 13 0 0 -22 -13 0 0 -6 12 0 0 -22 -12 0 -1 -53 -22 -6 0 357 13 -1 0 7 27 -3 -1 -6 19 -2 0 7 26 -3 -3 -6 16 -2zm-69 -281l-7 0 0 8 7 0 0 -8zm1 27l-8 0 0 9 8 0 0 -9zm-1 28l-7 0 0 8 7 0 0 -8z"/>
  </g>
  <g id="_514422456">
   <polygon class="fil3" points="86,146 203,111 203,468 82,456 "/>
   <polygon class="fil4" points="135,281 147,293 126,314 147,336 135,348 114,327 93,348 84,339 84,332 101,314 84,297 84,289 93,281 114,302 "/>
   <polygon class="fil4" points="135,355 147,368 126,389 147,410 135,422 113,401 92,422 83,413 83,407 101,389 83,371 83,364 92,355 113,376 "/>
   <polygon class="fil4" points="203,344 196,352 203,359 203,384 184,364 162,385 150,373 171,352 150,330 162,318 184,339 203,319 "/>
   <polygon class="fil4" points="203,269 199,274 203,279 203,303 186,286 165,307 153,295 174,274 153,253 165,240 186,262 203,244 "/>
   <polygon class="fil4" points="203,117 190,131 203,144 203,160 199,164 178,143 156,164 144,152 165,131 158,124 178,118 178,118 178,118 203,111 "/>
   <polygon class="fil4" points="135,131 144,140 123,161 144,183 132,195 111,174 90,195 85,190 85,175 99,161 86,148 86,146 103,141 111,149 126,134 "/>
   <g>
    <polygon class="fil4" points="131,394 147,410 135,422 113,401 92,422 83,413 83,407 96,394 "/>
    <polygon class="fil4" points="135,429 147,441 131,457 95,457 83,444 83,438 92,429 113,450 "/>
   </g>
   <polygon class="fil5" points="91,457 82,456 83,394 168,393 168,457 "/>
   <polygon class="fil6" points="96,394 131,394 147,410 135,422 113,401 92,422 83,413 83,407 "/>
   <polygon class="fil6" points="135,429 147,441 128,460 96,457 83,444 83,438 92,429 113,450 "/>
   <path class="fil7" d="M107 458l-1 6 -16 -1 3 -7 -12 -1 0 -16 63 6 6 -58 26 -6 1 -43 -14 0 1 -29 13 -5 1 -58 -10 0 0 -22 11 0 0 -6 -13 0 0 -22 13 0 0 -6 -12 0 0 -22 12 0 1 -53 22 -6 0 357 -13 -1 0 7 -27 -3 1 -6 -19 -2 0 7 -26 -3 3 -6 -16 -2zm69 -281l7 0 0 8 -7 0 0 -8zm-1 27l8 0 0 9 -8 0 0 -9zm1 28l7 0 0 8 -7 0 0 -8z"/>
  </g>
  <polygon class="fil8" points="197,46 288,44 291,71 304,176 240,196 189,183 "/>
  <polygon class="fil9" points="210,52 285,52 289,148 206,149 "/>
  <polygon class="fil10" points="0,209 119,150 187,259 43,321 "/>
  <polygon class="fil11" points="19,215 114,168 167,254 53,304 "/>
  <polygon class="fil12" points="34,219 110,182 152,250 61,290 "/>
  <polygon class="fil13" points="49,223 106,195 138,247 69,277 "/>
  <polygon class="fil14" points="92,163 122,167 104,199 156,153 180,173 136,213 160,196 172,219 152,235 169,224 172,256 109,293 50,241 49,234 "/>
  <polygon class="fil15" points="90,160 120,164 103,196 155,151 179,170 134,210 159,194 171,217 151,232 169,222 174,250 112,287 49,234 "/>
  <polygon class="fil16" points="360,164 490,207 443,337 307,273 "/>
  <polygon class="fil17" points="368,183 470,216 434,318 327,268 "/>
  <polygon class="fil18" points="375,198 454,224 426,303 343,264 "/>
  <path class="fil19" d="M456 166l19 -3 2 7c-7,27 -20,48 -36,56l-4 -14c8,-11 15,-25 19,-46z"/>
  <path class="fil20" d="M454 159l21 4c-7,27 -20,48 -36,56l-5 -14c8,-11 15,-25 19,-46z"/>
  <polygon class="fil21" points="381,212 439,231 418,289 358,261 "/>
  <path class="fil22" d="M364 172l8 -3 4 55 16 3c20,-8 25,-42 24,-72l5 -6c32,88 -40,116 -47,122l-12 -11c-6,-27 -6,-56 2,-86z"/>
  <path class="fil14" d="M370 168l18 4c-9,51 4,49 18,40 -6,15 -18,31 -28,42l-10 -4c-4,-27 -2,-54 1,-82z"/>
  <path class="fil19" d="M488 173l-8 0c-6,23 -20,38 -38,51l46 -20 0 -30z"/>
  <path class="fil15" d="M422 146l28 0c2,26 -2,52 -11,78 23,-9 41,-25 50,-51l22 2c-10,29 -27,53 -62,67l-26 30 -46 -3c35,-28 52,-68 44,-123z"/>
  <polygon class="fil23" points="242,131 273,130 274,116 290,122 292,223 289,229 286,224 285,232 282,233 279,228 279,234 274,227 273,236 247,235 247,236 220,236 219,228 213,235 213,228 210,233 207,233 206,224 204,229 200,224 202,123 219,117 219,130 242,131 "/>
  <polygon class="fil24" points="218,130 244,127 275,130 269,266 224,266 "/>
  <polygon class="fil24" points="218,282 274,282 270,326 220,327 "/>
  <polygon class="fil25" points="235,121 258,120 260,129 258,317 254,317 254,310 251,318 247,318 245,305 244,319 240,318 233,130 "/>
  <rect class="fil26" x="230" y="266" width="32" height="17"/>
  <g id="_514404840">
   <rect class="fil27" x="237" y="358" width="30" height="11"/>
   <rect class="fil27" x="235" y="399" width="33" height="10"/>
  </g>
  <polygon class="fil15" points="233,92 261,92 279,108 258,121 234,121 212,108 "/>
  <rect class="fil28" x="215" y="108" width="58" height="4"/>
  <polygon class="fil29" points="244,65 262,65 262,85 302,104 302,107 296,106 303,112 302,113 291,109 304,117 302,120 295,116 301,123 297,126 253,104 243,99 231,104 187,126 183,122 190,116 183,119 181,117 193,108 182,113 181,111 189,106 183,107 182,104 222,85 222,65 244,65 "/>
  <polygon class="fil30" points="203,16 245,12 284,16 284,42 203,42 "/>
  <polygon class="fil31" points="203,27 245,25 284,27 284,42 203,42 "/>
  <polygon class="fil32" points="193,5 206,4 214,36 224,36 229,0 251,0 260,36 270,37 278,2 291,2 291,71 196,71 "/>
  <polygon class="fil33" points="261,37 265,54 251,54 247,0 249,0 258,36 "/>
  <polygon class="fil34" points="196,56 222,49 224,36 229,0 251,0 259,49 291,53 291,71 257,71 250,80 229,80 222,71 196,71 "/>
  <path class="fil35" d="M233 6l10 0 1 0 0 1 11 51 0 0 0 0 -8 18 0 1 -1 0 -12 0 -1 0 0 -1 -9 -18 0 0 0 0 9 -51 0 -1 1 0zm9 2l-8 0 -9 49 8 17 11 0 8 -17 -10 -50z"/>
  <polygon class="fil36" points="236,17 241,17 246,53 242,65 236,65 232,52 "/>
  <polygon class="fil37" points="206,53 204,71 198,71 200,54 "/>
  <polygon class="fil37" points="217,50 215,71 208,71 210,52 "/>
  <polygon class="fil33" points="280,71 283,2 291,2 291,71 "/>
  <polygon class="fil38" points="280,71 281,52 291,53 291,71 "/>
  <polygon class="fil14" points="243,99 243,99 244,99 244,108 243,108 243,99 "/>
  <polygon class="fil14" points="255,105 255,108 254,108 254,104 "/>
  <g id="_515184400">
   <polygon class="fil14" points="244,112 244,121 243,121 243,112 "/>
   <polygon class="fil14" points="255,112 255,121 253,121 253,112 "/>
   <polygon class="fil14" points="264,112 264,117 262,118 262,112 "/>
   <polygon class="fil14" points="234,112 234,121 233,120 233,112 "/>
   <polygon class="fil14" points="226,112 226,116 225,115 225,112 "/>
  </g>
  <polygon class="fil14" points="234,102 234,108 233,108 233,103 "/>
 </g>
</svg>
