<?xml version="1.0" encoding="utf-8"?>
<!-- Generator: Adobe Illustrator 17.0.0, SVG Export Plug-In . SVG Version: 6.00 Build 0)  -->
<!DOCTYPE svg PUBLIC "-//W3C//DTD SVG 1.1//EN" "http://www.w3.org/Graphics/SVG/1.1/DTD/svg11.dtd">
<svg version="1.1" id="Capa_1" xmlns="http://www.w3.org/2000/svg" xmlns:xlink="http://www.w3.org/1999/xlink" x="0px" y="0px"
	 width="1000px" height="500px" viewBox="0 0 1000 500" enable-background="new 0 0 1000 500" xml:space="preserve">
<g>
	<rect x="288" y="37.52" fill-rule="evenodd" clip-rule="evenodd" width="425" height="9.35"/>
	<rect x="703.65" y="37.521" fill-rule="evenodd" clip-rule="evenodd" width="9.35" height="424.999"/>
	<rect x="288" y="453.17" fill-rule="evenodd" clip-rule="evenodd" width="425" height="9.35"/>
	<rect x="288.001" y="84.82" fill-rule="evenodd" clip-rule="evenodd" width="9.35" height="303.749"/>
	<rect x="288.001" y="418.32" fill-rule="evenodd" clip-rule="evenodd" width="9.35" height="34.851"/>
	<rect x="297.351" y="418.32" fill-rule="evenodd" clip-rule="evenodd" width="35.955" height="9.35"/>
	<rect x="323.956" y="343.144" fill-rule="evenodd" clip-rule="evenodd" width="9.35" height="75.175"/>
	<rect x="362.467" y="84.82" fill-rule="evenodd" clip-rule="evenodd" width="9.35" height="113.802"/>
	<rect x="362.467" y="312.723" fill-rule="evenodd" clip-rule="evenodd" width="9.35" height="112.884"/>
	<rect x="297.351" y="303.373" fill-rule="evenodd" clip-rule="evenodd" width="110.283" height="9.35"/>
	<rect x="448.769" y="303.373" fill-rule="evenodd" clip-rule="evenodd" width="27.511" height="9.35"/>
	<rect x="478.108" y="341.226" fill-rule="evenodd" clip-rule="evenodd" width="46.21" height="9.35"/>
	<rect x="402.559" y="341.226" fill-rule="evenodd" clip-rule="evenodd" width="46.21" height="9.35"/>
	<rect x="629.481" y="341.226" fill-rule="evenodd" clip-rule="evenodd" width="81.701" height="9.35"/>
	<rect x="629.108" y="264.949" fill-rule="evenodd" clip-rule="evenodd" width="46.21" height="9.35"/>
	<rect x="629.108" y="189.688" fill-rule="evenodd" clip-rule="evenodd" width="46.21" height="9.35"/>
	<rect x="590.149" y="228.647" fill-rule="evenodd" clip-rule="evenodd" width="46.21" height="9.35"/>
	<rect x="514.89" y="113.543" fill-rule="evenodd" clip-rule="evenodd" width="188.761" height="9.35"/>
	<rect x="590.785" y="75.47" fill-rule="evenodd" clip-rule="evenodd" width="83.649" height="9.35"/>
	<rect x="486.801" y="151.615" fill-rule="evenodd" clip-rule="evenodd" width="179.167" height="9.35"/>
	<rect x="447.844" y="75.47" fill-rule="evenodd" clip-rule="evenodd" width="72.994" height="9.35"/>
	<rect x="362.467" y="75.47" fill-rule="evenodd" clip-rule="evenodd" width="46.04" height="9.35"/>
	<rect x="288.001" y="75.47" fill-rule="evenodd" clip-rule="evenodd" width="46.04" height="9.35"/>
	<rect x="297.351" y="151.616" fill-rule="evenodd" clip-rule="evenodd" width="36.691" height="9.35"/>
	<rect x="325.188" y="114.43" fill-rule="evenodd" clip-rule="evenodd" width="37.279" height="9.35"/>
	<rect x="324.303" y="189.272" fill-rule="evenodd" clip-rule="evenodd" width="38.165" height="9.35"/>
	<rect x="371.817" y="379.074" fill-rule="evenodd" clip-rule="evenodd" width="69.098" height="9.35"/>
	<rect x="487.125" y="379.074" fill-rule="evenodd" clip-rule="evenodd" width="64.46" height="9.35"/>
	<rect x="439.42" y="303.373" fill-rule="evenodd" clip-rule="evenodd" width="9.35" height="37.852"/>
	<rect x="440.915" y="379.074" fill-rule="evenodd" clip-rule="evenodd" width="9.35" height="36.86"/>
	<rect x="551.584" y="191.088" fill-rule="evenodd" clip-rule="evenodd" width="9.35" height="224.847"/>
	<rect x="477.775" y="379.074" fill-rule="evenodd" clip-rule="evenodd" width="9.35" height="36.86"/>
	<rect x="400.24" y="414.932" fill-rule="evenodd" clip-rule="evenodd" width="9.35" height="38.238"/>
	<rect x="513.794" y="414.932" fill-rule="evenodd" clip-rule="evenodd" width="9.35" height="38.238"/>
	<rect x="628.154" y="389.328" fill-rule="evenodd" clip-rule="evenodd" width="9.35" height="71.814"/>
	<rect x="666.466" y="350.575" fill-rule="evenodd" clip-rule="evenodd" width="9.35" height="74.56"/>
	<rect x="514.969" y="160.994" fill-rule="evenodd" clip-rule="evenodd" width="9.35" height="180.232"/>
	<rect x="590.149" y="228.647" fill-rule="evenodd" clip-rule="evenodd" width="9.35" height="46.21"/>
	<rect x="629.108" y="189.688" fill-rule="evenodd" clip-rule="evenodd" width="9.35" height="48.362"/>
	<rect x="665.969" y="151.615" fill-rule="evenodd" clip-rule="evenodd" width="9.35" height="38.073"/>
	<rect x="665.969" y="228.952" fill-rule="evenodd" clip-rule="evenodd" width="9.35" height="83.217"/>
	<rect x="476.28" y="200.437" fill-rule="evenodd" clip-rule="evenodd" width="9.35" height="112.285"/>
	<rect x="437.101" y="152.833" fill-rule="evenodd" clip-rule="evenodd" width="9.35" height="114.681"/>
	<rect x="400.63" y="124.697" fill-rule="evenodd" clip-rule="evenodd" width="9.35" height="112.025"/>
	<rect x="591.294" y="304.517" fill-rule="evenodd" clip-rule="evenodd" width="9.35" height="75.462"/>
	<rect x="600.644" y="304.517" fill-rule="evenodd" clip-rule="evenodd" width="37.814" height="9.35"/>
	<rect x="560.934" y="265.507" fill-rule="evenodd" clip-rule="evenodd" width="29.215" height="9.35"/>
	<rect x="560.934" y="191.088" fill-rule="evenodd" clip-rule="evenodd" width="36.861" height="9.35"/>
	<rect x="446.45" y="191.088" fill-rule="evenodd" clip-rule="evenodd" width="39.18" height="9.35"/>
	<rect x="591.294" y="379.978" fill-rule="evenodd" clip-rule="evenodd" width="46.21" height="9.35"/>
	<rect x="551.584" y="415.934" fill-rule="evenodd" clip-rule="evenodd" width="46.21" height="9.35"/>
	<rect x="440.915" y="415.934" fill-rule="evenodd" clip-rule="evenodd" width="46.21" height="9.35"/>
	<rect x="590.785" y="46.871" fill-rule="evenodd" clip-rule="evenodd" width="9.35" height="28.599"/>
	<rect x="552.601" y="75.79" fill-rule="evenodd" clip-rule="evenodd" width="9.35" height="37.753"/>
	<rect x="399.158" y="46.871" fill-rule="evenodd" clip-rule="evenodd" width="9.35" height="28.599"/>
	<rect x="438.48" y="75.47" fill-rule="evenodd" clip-rule="evenodd" width="9.35" height="39.878"/>
	<rect x="477.452" y="84.82" fill-rule="evenodd" clip-rule="evenodd" width="9.35" height="76.174"/>
	<rect x="629.108" y="274.298" fill-rule="evenodd" clip-rule="evenodd" width="9.35" height="30.218"/>
	<rect x="398.284" y="276.864" fill-rule="evenodd" clip-rule="evenodd" width="9.35" height="26.51"/>
	<rect x="325.237" y="228.501" fill-rule="evenodd" clip-rule="evenodd" width="9.35" height="48.363"/>
	<rect x="325.237" y="228.501" fill-rule="evenodd" clip-rule="evenodd" width="83.818" height="9.35"/>
	<rect x="325.237" y="267.514" fill-rule="evenodd" clip-rule="evenodd" width="45.902" height="9.35"/>
	<rect x="398.284" y="267.514" fill-rule="evenodd" clip-rule="evenodd" width="48.167" height="9.35"/>
	<rect x="400.63" y="115.348" fill-rule="evenodd" clip-rule="evenodd" width="47.2" height="9.35"/>
</g>
</svg>
